PathFileType	4	(X/Y/Z)	KinectSkeleton.trc																																																	
DataRate	CameraRate	NumFrames	NumMarkers	Units	OrigDataRate	OrigDataStartFrame	OrigNumFrames																																													
60	60	11	17	mm	60	124	300																																													
Frame#	Time	Neck			ShoulderMid			R.Shoulder			L.Shoulder			R.Elbow			L.Elbow			R.Wrist			L.Wrist			HipCenter			R.Hip			L.Hip			R.Knee			L.Knee			R.Ankle			L.Ankle			R.Foot			L.Foot		
		X1	Y1	Z1	X2	Y2	Z2	X3	Y3	Z3	X4	Y4	Z4	X5	Y5	Z5	X6	Y6	Z6	X7	Y7	Z7	X8	Y8	Z8	X9	Y9	Z9	X10	Y10	Z10	X11	Y11	Z11	X12	Y12	Z12	X13	Y13	Z13	X14	Y14	Z14	X15	Y15	Z15	X16	Y16	Z16	X17	Y17	Z17
																																																				
124	6.665	-1643.781	1528.97	786.253	-1643.781	1528.97	786.253	-1568.898	1481.999	945.972	-1726.562	1537.217	618.934	-1591.646	1298.589	1188.715	-1568.458	1298.495	531.349	-1393.797	1192.324	1308.423	-1437.247	1098.103	455.295	-1769.928	960.296	792.856	-1745.159	954.035	878.205	-1797.396	967.239	698.207	-1713.223	522.301	859.671	-1787.871	536.049	651.877	-1754.538	105.761	842.972	-1875.929	130.974	656.045	-1582.996	41.692	806.257	-1702.323	59.211	579.133
125	6.709	-1650.129	1533.281	784.512	-1650.129	1533.281	784.512	-1581.137	1489.29	948.863	-1729.867	1532.016	612.902	-1616.58	1302.632	1189.346	-1578.197	1285.068	532.364	-1415.649	1200.977	1310.383	-1453.074	1077.708	461.095	-1760.525	958.734	789.153	-1736.2	952.726	875.07	-1787.5	965.398	693.874	-1701.696	519.241	855.838	-1763.088	535.59	626.444	-1748.169	101.361	838.288	-1824.84	124.44	602.652	-1574.532	37.864	806.419	-1646.141	47.125	542.079
126	6.756	-1653.874	1533.259	779.972	-1653.874	1533.259	779.972	-1590.272	1492.981	947.814	-1727.123	1529.64	605.56	-1630.372	1305.116	1187.341	-1583.67	1278.52	520.909	-1424.368	1210.824	1306.791	-1465.29	1067.699	446.691	-1756.47	956.277	787.582	-1732.611	950.796	873.836	-1782.928	962.356	691.93	-1697.901	516.426	856.989	-1750.85	533.649	616.056	-1748.529	98.165	841.601	-1805.604	121.203	585.208	-1575.591	32.188	808.954	-1627.989	46.936	516.872
127	6.801	-1658.751	1533.712	774.341	-1658.751	1533.712	774.341	-1611.49	1504.594	948.585	-1724.862	1526.51	597.042	-1663.241	1313.513	1183.645	-1592.719	1271.619	504.642	-1437.965	1236.197	1278.445	-1484.702	1057.641	423.232	-1749.73	954.059	784.225	-1727.873	949.463	871.142	-1773.969	959.157	687.838	-1688.816	514.951	857.727	-1723.995	536.294	589.824	-1754.711	98.395	843.591	-1789.258	125.887	548.844	-1577.811	38.59	820.793	-1610.422	46.511	489.474
128	6.848	-1659.453	1527.655	775.553	-1659.453	1527.655	775.553	-1623.695	1508.465	951.497	-1723.4	1523.35	597.315	-1666.254	1310.817	1183.353	-1593.833	1269.535	497.604	-1434.146	1248.562	1273.334	-1487.61	1056.46	410.848	-1749.837	947.044	781.397	-1731.272	942.845	869.188	-1770.425	951.7	684.039	-1730.974	506.024	860.396	-1718.16	530.095	580.03	-1764.309	85.041	851.383	-1783.587	120.951	524.85	-1582.611	46.445	820.445	-1598.257	45.782	481.333
129	6.894	-1661.086	1529.555	771.375	-1661.086	1529.555	771.375	-1634.448	1511.413	947.958	-1719.019	1521.034	591.115	-1677.674	1314.644	1178.42	-1605.089	1268.39	475.171	-1441.578	1254.42	1254.767	-1511.029	1056.372	376.285	-1745.855	950.948	775.455	-1726.482	946.807	862.619	-1767.339	955.54	678.793	-1668.164	516.021	857.288	-1677.094	547.426	557.498	-1755.297	104.855	854.352	-1782.795	148.407	506.402	-1579.048	50.76	820.869	-1601.744	58.639	481.092
130	6.941	-1667.941	1533.016	764.879	-1667.941	1533.016	764.879	-1646.073	1515.522	942.962	-1722.712	1522.698	582.895	-1690.193	1316.149	1172.558	-1606.703	1273.187	459.512	-1452.106	1265.039	1252.519	-1509.852	1063.798	355.418	-1746.202	951.291	770.131	-1727.369	947.672	857.783	-1767.088	955.306	672.929	-1665.889	515.635	855.763	-1687.527	542.675	553.529	-1753.69	102.991	851.876	-1784.165	139.342	505.612	-1572.521	53.909	839.795	-1599.512	61.498	465.159
131	6.984	-1674.875	1537.712	751.521	-1674.875	1537.712	751.521	-1660.538	1519.98	931.214	-1720.688	1530.861	567.288	-1712.139	1315.865	1156.686	-1601.183	1283.53	439.975	-1476.472	1268.416	1248.476	-1500.729	1075.939	333.274	-1746.11	952.766	758.22	-1728.125	950.053	846.447	-1766.055	955.775	660.38	-1662.95	516.915	856.551	-1712.06	537.359	540.442	-1755.194	103.506	858.175	-1794.211	129.652	488.21	-1571.823	59.084	866.019	-1602.216	63.523	458.361
132	7.03	-1662.737	1535.514	746.944	-1662.737	1535.514	746.944	-1668.156	1520.288	922.543	-1671.125	1535.902	561.035	-1734.309	1305.618	1126.552	-1807.864	1313.475	417.786	-1508.633	1272.402	1236.265	-1646.375	1153.425	313.945	-1740.704	961.215	739.443	-1728.617	958.075	827.169	-1754.108	964.697	642.158	-1680.729	530.717	855.62	-1747.42	540.662	562.862	-1754.014	120.572	859.485	-1792.357	133.885	512.645	-1581.334	57.021	884.925	-1617.674	70.916	433.387
133	7.077	-1667.562	1535.29	726.226	-1667.562	1535.29	726.226	-1692.504	1524.189	901.354	-1661.285	1528.386	538.818	-1780.416	1303.964	1092.869	-1756.142	1300.102	370.366	-1571.555	1259.287	1230.803	-1554.722	1177.971	283.462	-1733.991	956.782	722.052	-1737.044	955.68	811	-1730.607	958.003	623.412	-1674.532	530.977	866.886	-1715.762	535.312	528.965	-1758.062	120.924	860.508	-1796.468	135.346	457.922	-1591.031	61.534	918.705	-1609.139	59.424	441.48
134	7.122	-1670.363	1533.84	717.596	-1670.363	1533.84	717.596	-1703.322	1519.286	892.763	-1651.763	1517.141	527.864	-1806.561	1293.941	1073.456	-1750.164	1296.295	348.5	-1605.207	1260.126	1227.667	-1527.956	1215.656	259.27	-1734.31	951.432	714.146	-1741.791	951.668	803.405	-1726.013	951.17	615.162	-1668.493	527.617	871.221	-1675.351	529.209	517.276	-1771.064	119.208	862.649	-1807.717	139.705	450.319	-1605.176	61.859	929.351	-1627.288	44.448	445.665
